# xmcd CD database file
#
# Track frame offsets:
#	150
#	14207
#	29142
#	49152
#
# Disc length: 843 seconds
#
# Revision: 2
# Processed by: cddbd v1.4PL0 Copyright (c) Steve Scherf et al.
# Submitted via: CDex 1.51
#
DISCID=37034904
DTITLE=Lyle Lovett - You Can't Resist It
DYEAR=1992
DGENRE=Folk
TTITLE0=You Can't Resist It (Re-recorded version)
TTITLE1=M-O-N-E-Y (Remix)
TTITLE2=Once Is Enough (Remix)
TTITLE3=If I Had a Boat
EXTD=YEAR: 1992
EXTT0=
EXTT1=
EXTT2=
EXTT3=
PLAYORDER=
